<?xml version="1.0" encoding="UTF-8"?>
<svg version="1.1" xmlns="http://www.w3.org/2000/svg" width="348" height="139">
<path d="M0 0 C13.86 0 27.72 0 42 0 C43.32 5.28 44.64 10.56 46 16 C46.61101563 18.32675781 47.22203125 20.65351563 47.8515625 23.05078125 C55.17247822 52.30024364 55.15361509 81.999542 55 112 C56.32 112 57.64 112 59 112 C58.99476318 111.37472412 58.98952637 110.74944824 58.98413086 110.10522461 C58.88856327 96.71245455 58.9713965 83.326018 59.3125 69.9375 C59.34621704 68.08789673 59.34621704 68.08789673 59.38061523 66.20092773 C59.82720993 50.96303557 63.25629294 36.26746947 66.58935547 21.4465332 C67.13613105 19.01295821 67.67581795 16.57788022 68.21484375 14.14257812 C68.56209303 12.58584667 68.90973361 11.02920242 69.2578125 9.47265625 C69.41823029 8.74885269 69.57864807 8.02504913 69.743927 7.27931213 C70.88448714 2.23102572 70.88448714 2.23102572 72 0 C85.53 0 99.06 0 113 0 C113 44.88 113 89.76 113 136 C104.42 136 95.84 136 87 136 C86.55758764 109.38152289 87.02217309 82.992265 88.9375 56.4375 C89.07460388 54.52907318 89.07460388 54.52907318 89.21447754 52.58209229 C90.83282713 30.36052042 90.83282713 30.36052042 92 23 C90.68 23 89.36 23 88 23 C88.01114838 23.56869812 88.02229675 24.13739624 88.03378296 24.72332764 C88.16826697 37.27048312 86.7714008 49.76781326 85.625 62.25 C85.56214939 62.94040501 85.49929878 63.63081001 85.43454361 64.34213638 C83.17081064 89.05144327 78.86102378 112.41692867 71 136 C61.76 136 52.52 136 43 136 C35.29905143 110.97191715 30.55769491 87.80986807 28.27441406 61.87158203 C27.91555288 57.85547884 27.52930136 53.84200202 27.14648438 49.828125 C25 27.14228518 25 27.14228518 25 23 C24.01 23 23.02 23 22 23 C22.12060791 24.53648193 22.12060791 24.53648193 22.24365234 26.10400391 C22.97834558 35.48352557 23.69921538 44.86399169 24.4065094 54.24562073 C24.79720575 59.40671625 25.21074988 64.56501648 25.64453125 69.72265625 C27.4138929 91.80600391 27.18162156 113.86234954 27 136 C18.09 136 9.18 136 0 136 C0 91.12 0 46.24 0 0 Z " fill="#FFFC14" transform="translate(0,2)"/>
<path d="M0 0 C7.33761568 5.90889724 9.88906362 15.88250628 10.94921875 24.82421875 C11.53636472 32.80362872 11.18303663 40.09820696 10.1875 48.0625 C1.9375 48.0625 -6.3125 48.0625 -14.8125 48.0625 C-14.83828125 46.23203125 -14.8640625 44.4015625 -14.890625 42.515625 C-14.94689998 40.11455929 -15.00424744 37.71351855 -15.0625 35.3125 C-15.07667969 34.1059375 -15.09085938 32.899375 -15.10546875 31.65625 C-15.13769531 30.49609375 -15.16992188 29.3359375 -15.203125 28.140625 C-15.22407227 27.07231445 -15.24501953 26.00400391 -15.26660156 24.90332031 C-15.93790253 21.40991332 -17.04150702 20.22951001 -19.8125 18.0625 C-24.36848113 16.67589705 -27.51775033 17.01273311 -31.8125 19.0625 C-33.66690843 21.94757077 -34.06829136 24.22247418 -34.078125 27.6171875 C-34.08070313 28.47957031 -34.08328125 29.34195313 -34.0859375 30.23046875 C-34.07820313 31.12378906 -34.07046875 32.01710937 -34.0625 32.9375 C-34.07023437 33.82308594 -34.07796875 34.70867188 -34.0859375 35.62109375 C-34.07172106 40.3907081 -34.05626462 44.73914865 -31.8125 49.0625 C-29.69446662 50.29463349 -29.69446662 50.29463349 -27.0625 50.6875 C-26.07894531 50.91050781 -25.09539062 51.13351563 -24.08203125 51.36328125 C-22.46361328 51.70939453 -22.46361328 51.70939453 -20.8125 52.0625 C0.53737335 57.2983592 0.53737335 57.2983592 6.6875 66.9375 C11.38712654 75.21649327 11.52673279 83.53087394 11.5 92.8125 C11.51611328 93.9159375 11.53222656 95.019375 11.54882812 96.15625 C11.55482407 106.3733434 10.24405012 116.58332983 4.1875 125.0625 C-4.84472022 133.89400421 -14.76076849 134.35393313 -26.64477539 134.3815918 C-35.46537144 134.2635574 -44.02218966 133.15505923 -51.375 127.8125 C-60.72013939 117.26926582 -61.44310344 102.52773821 -60.8125 89.0625 C-60.4825 86.4225 -60.1525 83.7825 -59.8125 81.0625 C-51.5625 81.0625 -43.3125 81.0625 -34.8125 81.0625 C-34.78671875 82.89296875 -34.7609375 84.7234375 -34.734375 86.609375 C-34.67810002 89.01044071 -34.62075256 91.41148145 -34.5625 93.8125 C-34.54832031 95.0190625 -34.53414062 96.225625 -34.51953125 97.46875 C-34.48730469 98.62890625 -34.45507812 99.7890625 -34.421875 100.984375 C-34.40092773 102.05268555 -34.37998047 103.12099609 -34.35839844 104.22167969 C-33.68709747 107.71508668 -32.58349298 108.89548999 -29.8125 111.0625 C-25.27484293 112.44352606 -22.06454409 112.18852205 -17.8125 110.0625 C-15.30125513 105.63589888 -15.47969853 101.1329382 -15.5 96.1875 C-15.48388672 95.41019531 -15.46777344 94.63289063 -15.45117188 93.83203125 C-15.44671067 88.52320279 -16.05318316 84.65550297 -18.8125 80.0625 C-21.41812504 78.54103118 -21.41812504 78.54103118 -24.5625 77.9375 C-26.295 77.47730469 -26.295 77.47730469 -28.0625 77.0078125 C-29.91875 76.53988281 -29.91875 76.53988281 -31.8125 76.0625 C-42.05202756 73.30052217 -51.53625657 70.34528992 -57.20703125 60.6875 C-61.00722584 52.52312435 -61.05817756 45.04802313 -61.125 36.125 C-61.15400391 34.86880859 -61.18300781 33.61261719 -61.21289062 32.31835938 C-61.28762056 21.18359946 -59.93120174 9.92825726 -51.80859375 1.6484375 C-38.85611327 -8.64257439 -13.85014741 -7.98245055 0 0 Z " fill="#FFFC14" transform="translate(262.8125,4.9375)"/>
<path d="M0 0 C8.91 0 17.82 0 27 0 C32.9896213 23.91044011 36.82478717 47.21056336 36 72 C37.32 72 38.64 72 40 72 C40.02392822 71.02168213 40.04785645 70.04336426 40.07250977 69.03540039 C40.56559503 50.80217205 41.58357887 33.03116701 45.5625 15.1875 C45.72211212 14.46982452 45.88172424 13.75214905 46.0461731 13.01272583 C48.68622881 1.31377119 48.68622881 1.31377119 50 0 C51.99964982 -0.08758003 54.0023611 -0.10696576 56.00390625 -0.09765625 C57.21884766 -0.09443359 58.43378906 -0.09121094 59.68554688 -0.08789062 C60.96494141 -0.07951172 62.24433594 -0.07113281 63.5625 -0.0625 C64.84576172 -0.05798828 66.12902344 -0.05347656 67.45117188 -0.04882812 C70.63416022 -0.03699545 73.81705762 -0.02051068 77 0 C76.02735177 4.17566516 75.04855849 8.34985143 74.06665039 12.52334595 C73.68676734 14.14179752 73.3083653 15.76059739 72.93139648 17.37973022 C70.41392469 28.18726792 67.77463145 38.95619047 64.95983887 49.69010925 C63.67112801 54.60510383 62.40648776 59.52623485 61.14505768 64.44829273 C60.24948598 67.93504776 59.3414524 71.41744193 58.40161133 74.89254761 C52.85161766 95.4520012 50.84284827 114.70508614 51 136 C42.42 136 33.84 136 25 136 C25.06123047 134.03248779 25.12246094 132.06497559 25.18554688 130.0378418 C25.61541702 104.26361461 19.89536167 80.73294477 13.32769775 55.95178223 C11.65846674 49.62074261 10.04050967 43.2764283 8.416008 36.93379498 C7.15540853 32.01491096 5.88743453 27.09840016 4.59436035 22.1879425 C4.36005814 21.29161606 4.12575592 20.39528961 3.88435364 19.47180176 C3.45130653 17.81628032 3.0144984 16.16173542 2.57292175 14.50846863 C2.28273918 13.39406906 2.28273918 13.39406906 1.98669434 12.25715637 C1.81930504 11.62417539 1.65191574 10.9911944 1.47945404 10.33903217 C0.78036344 6.92849586 0.43182058 3.4545646 0 0 Z " fill="#FFFC14" transform="translate(120,2)"/>
<path d="M0 0 C22.77 0 45.54 0 69 0 C69 7.59 69 15.18 69 23 C62.07 23 55.14 23 48 23 C48 60.29 48 97.58 48 136 C39.09 136 30.18 136 21 136 C21 98.71 21 61.42 21 23 C14.07 23 7.14 23 0 23 C0 15.41 0 7.82 0 0 Z " fill="#FFFC14" transform="translate(279,2)"/>
</svg>
